<mxfile host="drawio-plugin" modified="2021-10-15T14:19:29.843Z" agent="5.0 (Macintosh; Intel Mac OS X 11_3_1) AppleWebKit/537.36 (KHTML, like Gecko) Chrome/89.0.4389.114 Safari/537.36" version="14.7.4" etag="NnDXqjkeDzWIioV0CZiK" type="embed"><diagram id="Z5nexQRz4UFHc92OKKcN" name="Page-1"><mxGraphModel dx="1872" dy="432" grid="1" gridSize="10" guides="1" tooltips="1" connect="1" arrows="1" fold="1" page="0" pageScale="1" pageWidth="850" pageHeight="1100" math="0" shadow="0"><root><mxCell id="0"/><mxCell id="1" parent="0"/><mxCell id="2" value="" style="rounded=0;whiteSpace=wrap;html=1;" vertex="1" parent="1"><mxGeometry x="-40" y="580" width="170" height="60" as="geometry"/></mxCell></root></mxGraphModel></diagram></mxfile>